# xmcd
#
# Track frame offsets: 
#        150
#        10695
#        22828
#        34721
#        50397
#        65494
#        82036
#        94724
#        108763
#        124189
#
# Disc length: 1868 seconds
#
# Revision: 0
# Processed by: cddbd v1.5.2PL0 Copyright (c) Steve Scherf et al.
# Submitted via: ExactAudioCopyFreeDBPlugin 1.0
#
DISCID=6f074a0a
DTITLE=Zook - Music From The Accumulator
DYEAR=1900
DGENRE=
TTITLE0=Slinky
TTITLE1=Snake Oil
TTITLE2=Slerky
TTITLE3=Antigua
TTITLE4=Spook
TTITLE5=Bastinado
TTITLE6=Claxtonola
TTITLE7=Bongitude
TTITLE8=Locomotiv
TTITLE9=Dulcetone
EXTD=
EXTT0=
EXTT1=
EXTT2=
EXTT3=
EXTT4=
EXTT5=
EXTT6=
EXTT7=
EXTT8=
EXTT9=
PLAYORDER=
